<svg class="animated" id="freepik_stories-information-tab" xmlns="http://www.w3.org/2000/svg" viewBox="0 0 500 500" version="1.1" xmlns:xlink="http://www.w3.org/1999/xlink" xmlns:svgjs="http://svgjs.com/svgjs"><style>svg#freepik_stories-information-tab:not(.animated) .animable {opacity: 0;}svg#freepik_stories-information-tab.animated #freepik--background-complete--inject-1 {animation: 6s Infinite  linear floating;animation-delay: 0s;}svg#freepik_stories-information-tab.animated #freepik--Character--inject-1 {animation: 6s Infinite  linear floating;animation-delay: 0s;}            @keyframes floating {                0% {                    opacity: 1;                    transform: translateY(0px);                }                50% {                    transform: translateY(-10px);                }                100% {                    opacity: 1;                    transform: translateY(0px);                }            }        </style><g id="freepik--background-complete--inject-1" class="animable" style="transform-origin: 250px 228.23px;"><rect y="382.4" width="500" height="0.25" style="fill: rgb(235, 235, 235); transform-origin: 250px 382.525px;" id="elt1hqr7aav3d" class="animable"></rect><rect x="416.78" y="398.49" width="33.12" height="0.25" style="fill: rgb(235, 235, 235); transform-origin: 433.34px 398.615px;" id="elxwd1qusb2l" class="animable"></rect><rect x="322.53" y="401.21" width="8.69" height="0.25" style="fill: rgb(235, 235, 235); transform-origin: 326.875px 401.335px;" id="el54j45m7rne8" class="animable"></rect><rect x="396.59" y="389.21" width="19.19" height="0.25" style="fill: rgb(235, 235, 235); transform-origin: 406.185px 389.335px;" id="el40iy7s2tgvf" class="animable"></rect><rect x="52.46" y="390.89" width="43.19" height="0.25" style="fill: rgb(235, 235, 235); transform-origin: 74.055px 391.015px;" id="eltatz26fuivi" class="animable"></rect><rect x="104.56" y="390.89" width="6.33" height="0.25" style="fill: rgb(235, 235, 235); transform-origin: 107.725px 391.015px;" id="eln635agknm1" class="animable"></rect><rect x="131.47" y="395.11" width="93.68" height="0.25" style="fill: rgb(235, 235, 235); transform-origin: 178.31px 395.235px;" id="elj4rqe4pldp" class="animable"></rect><path d="M237,337.8H43.91a5.71,5.71,0,0,1-5.7-5.71V60.66A5.71,5.71,0,0,1,43.91,55H237a5.71,5.71,0,0,1,5.71,5.71V332.09A5.71,5.71,0,0,1,237,337.8ZM43.91,55.2a5.46,5.46,0,0,0-5.45,5.46V332.09a5.46,5.46,0,0,0,5.45,5.46H237a5.47,5.47,0,0,0,5.46-5.46V60.66A5.47,5.47,0,0,0,237,55.2Z" style="fill: rgb(235, 235, 235); transform-origin: 140.46px 196.4px;" id="ell50syc2gnz" class="animable"></path><path d="M453.31,337.8H260.21a5.72,5.72,0,0,1-5.71-5.71V60.66A5.72,5.72,0,0,1,260.21,55h193.1A5.71,5.71,0,0,1,459,60.66V332.09A5.71,5.71,0,0,1,453.31,337.8ZM260.21,55.2a5.47,5.47,0,0,0-5.46,5.46V332.09a5.47,5.47,0,0,0,5.46,5.46h193.1a5.47,5.47,0,0,0,5.46-5.46V60.66a5.47,5.47,0,0,0-5.46-5.46Z" style="fill: rgb(235, 235, 235); transform-origin: 356.75px 196.4px;" id="ell5kzxmv5nhg" class="animable"></path><g id="el27axqdpq3o4"><rect x="301.09" y="78.79" width="108.81" height="196.62" style="fill: rgb(230, 230, 230); transform-origin: 355.495px 177.1px; transform: rotate(180deg);" class="animable"></rect></g><g id="elfgsh2g2fowe"><rect x="296.07" y="78.79" width="111.48" height="196.62" style="fill: rgb(240, 240, 240); transform-origin: 351.81px 177.1px; transform: rotate(180deg);" class="animable"></rect></g><g id="elhs7yyiwbb1b"><rect x="301.09" y="275.41" width="108.81" height="4.66" style="fill: rgb(230, 230, 230); transform-origin: 355.495px 277.74px; transform: rotate(180deg);" class="animable"></rect></g><g id="el07mplmfdmyk8"><rect x="294.26" y="275.41" width="111.48" height="4.66" style="fill: rgb(240, 240, 240); transform-origin: 350px 277.74px; transform: rotate(180deg);" class="animable"></rect></g><g id="ele0pqdlxpta8"><rect x="260.53" y="128.39" width="182.56" height="97.42" style="fill: rgb(250, 250, 250); transform-origin: 351.81px 177.1px; transform: rotate(90deg);" class="animable"></rect></g><polygon points="330.66 268.38 358.08 85.82 377.56 85.82 350.13 268.38 330.66 268.38" style="fill: rgb(255, 255, 255); transform-origin: 354.11px 177.1px;" id="eldsds6diud8u" class="animable"></polygon><polygon points="333.75 268.38 361.18 85.82 380.65 85.82 353.22 268.38 333.75 268.38" style="fill: rgb(255, 255, 255); transform-origin: 357.2px 177.1px;" id="elzndwyjnrgvh" class="animable"></polygon><polygon points="354.31 268.38 381.74 85.82 389.33 85.82 361.91 268.38 354.31 268.38" style="fill: rgb(255, 255, 255); transform-origin: 371.82px 177.1px;" id="el8qr87q2gu0j" class="animable"></polygon><g id="el8w4p52yul7"><rect x="212.27" y="176.65" width="182.56" height="0.89" style="fill: rgb(230, 230, 230); transform-origin: 303.55px 177.095px; transform: rotate(90deg);" class="animable"></rect></g><g id="elghu0wxth4tt"><polygon points="294.41 91.12 403.22 91.12 403.86 88.55 295.06 88.55 294.41 91.12" style="fill: rgb(235, 235, 235); opacity: 0.6; transform-origin: 349.135px 89.835px;" class="animable"></polygon></g><g id="elwqo5to43tjf"><polygon points="294.41 95.32 403.22 95.32 403.86 92.76 295.06 92.76 294.41 95.32" style="fill: rgb(235, 235, 235); opacity: 0.6; transform-origin: 349.135px 94.04px;" class="animable"></polygon></g><g id="el65td6d3a08x"><polygon points="294.41 99.53 403.22 99.53 403.86 96.97 295.06 96.97 294.41 99.53" style="fill: rgb(235, 235, 235); opacity: 0.6; transform-origin: 349.135px 98.25px;" class="animable"></polygon></g><g id="elwjsav0lybyr"><polygon points="294.41 103.74 403.22 103.74 403.86 101.17 295.06 101.17 294.41 103.74" style="fill: rgb(235, 235, 235); opacity: 0.6; transform-origin: 349.135px 102.455px;" class="animable"></polygon></g><g id="el2p4pjxdgf5s"><polygon points="294.41 107.95 403.22 107.95 403.86 105.38 295.06 105.38 294.41 107.95" style="fill: rgb(235, 235, 235); opacity: 0.6; transform-origin: 349.135px 106.665px;" class="animable"></polygon></g><g id="elctnoyesejm5"><polygon points="294.41 112.15 403.22 112.15 403.86 109.59 295.06 109.59 294.41 112.15" style="fill: rgb(235, 235, 235); opacity: 0.6; transform-origin: 349.135px 110.87px;" class="animable"></polygon></g><rect x="274.53" y="67" width="156.92" height="3.79" style="fill: rgb(240, 240, 240); transform-origin: 352.99px 68.895px;" id="elbbdba6wc7ke" class="animable"></rect><g id="el26ml4vun7ux"><rect x="420.36" y="63.81" width="8.25" height="242.84" style="fill: rgb(250, 250, 250); opacity: 0.8; transform-origin: 424.485px 185.23px;" class="animable"></rect></g><g id="elhe0yic1d399"><rect x="420.36" y="63.81" width="2.14" height="242.84" style="fill: rgb(240, 240, 240); opacity: 0.8; transform-origin: 421.43px 185.23px;" class="animable"></rect></g><g id="eloa4ewd44n2p"><rect x="412.11" y="63.81" width="8.25" height="242.84" style="fill: rgb(250, 250, 250); opacity: 0.8; transform-origin: 416.235px 185.23px;" class="animable"></rect></g><g id="el1y300huv7s9j"><rect x="412.11" y="63.81" width="2.14" height="242.84" style="fill: rgb(240, 240, 240); opacity: 0.8; transform-origin: 413.18px 185.23px;" class="animable"></rect></g><g id="elmou1l94wvz8"><rect x="403.86" y="63.81" width="8.25" height="242.84" style="fill: rgb(250, 250, 250); opacity: 0.8; transform-origin: 407.985px 185.23px;" class="animable"></rect></g><g id="elhauglly7c49"><rect x="292.84" y="63.81" width="8.25" height="242.84" style="fill: rgb(250, 250, 250); opacity: 0.8; transform-origin: 296.965px 185.23px;" class="animable"></rect></g><g id="eliu0ky7jzrps"><rect x="292.84" y="63.81" width="2.14" height="242.84" style="fill: rgb(240, 240, 240); opacity: 0.8; transform-origin: 293.91px 185.23px;" class="animable"></rect></g><g id="el5g8l0ky9oui"><rect x="284.6" y="63.81" width="8.25" height="242.84" style="fill: rgb(250, 250, 250); opacity: 0.8; transform-origin: 288.725px 185.23px;" class="animable"></rect></g><g id="elwll3purdr7g"><rect x="284.6" y="63.81" width="2.14" height="242.84" style="fill: rgb(240, 240, 240); opacity: 0.8; transform-origin: 285.67px 185.23px;" class="animable"></rect></g><g id="elhwrtfiwkrat"><rect x="276.35" y="63.81" width="8.25" height="242.84" style="fill: rgb(250, 250, 250); opacity: 0.8; transform-origin: 280.475px 185.23px;" class="animable"></rect></g><g id="elfedpjn53xdl"><rect x="85.34" y="78.79" width="108.81" height="196.62" style="fill: rgb(230, 230, 230); transform-origin: 139.745px 177.1px; transform: rotate(180deg);" class="animable"></rect></g><g id="el5rpk9g6b22w"><rect x="80.32" y="78.79" width="111.48" height="196.62" style="fill: rgb(240, 240, 240); transform-origin: 136.06px 177.1px; transform: rotate(180deg);" class="animable"></rect></g><g id="elpla8gf3co3c"><rect x="85.34" y="275.41" width="108.81" height="4.66" style="fill: rgb(230, 230, 230); transform-origin: 139.745px 277.74px; transform: rotate(180deg);" class="animable"></rect></g><g id="ely9wyc3jmbp"><rect x="78.51" y="275.41" width="111.48" height="4.66" style="fill: rgb(240, 240, 240); transform-origin: 134.25px 277.74px; transform: rotate(180deg);" class="animable"></rect></g><g id="eligxo3wym56"><rect x="44.78" y="128.39" width="182.56" height="97.42" style="fill: rgb(250, 250, 250); transform-origin: 136.06px 177.1px; transform: rotate(90deg);" class="animable"></rect></g><polygon points="114.91 268.38 142.33 85.82 161.81 85.82 134.38 268.38 114.91 268.38" style="fill: rgb(255, 255, 255); transform-origin: 138.36px 177.1px;" id="elg690alzhk6f" class="animable"></polygon><polygon points="118 268.38 145.42 85.82 164.9 85.82 137.47 268.38 118 268.38" style="fill: rgb(255, 255, 255); transform-origin: 141.45px 177.1px;" id="el6nya4as7alp" class="animable"></polygon><polygon points="138.56 268.38 165.99 85.82 173.58 85.82 146.16 268.38 138.56 268.38" style="fill: rgb(255, 255, 255); transform-origin: 156.07px 177.1px;" id="el5bouakvba6" class="animable"></polygon><g id="elgl4ycosdcp8"><rect x="-3.49" y="176.65" width="182.56" height="0.89" style="fill: rgb(230, 230, 230); transform-origin: 87.79px 177.095px; transform: rotate(90deg);" class="animable"></rect></g><g id="eljv80fmlcrip"><polygon points="78.66 91.12 187.47 91.12 188.11 88.55 79.31 88.55 78.66 91.12" style="fill: rgb(235, 235, 235); opacity: 0.6; transform-origin: 133.385px 89.835px;" class="animable"></polygon></g><g id="elqqciqv6sv4m"><polygon points="78.66 95.32 187.47 95.32 188.11 92.76 79.31 92.76 78.66 95.32" style="fill: rgb(235, 235, 235); opacity: 0.6; transform-origin: 133.385px 94.04px;" class="animable"></polygon></g><g id="elxbifj9xi4jm"><polygon points="78.66 99.53 187.47 99.53 188.11 96.97 79.31 96.97 78.66 99.53" style="fill: rgb(235, 235, 235); opacity: 0.6; transform-origin: 133.385px 98.25px;" class="animable"></polygon></g><g id="elqh40z6c8qtb"><polygon points="78.66 103.74 187.47 103.74 188.11 101.17 79.31 101.17 78.66 103.74" style="fill: rgb(235, 235, 235); opacity: 0.6; transform-origin: 133.385px 102.455px;" class="animable"></polygon></g><g id="el7aauho84fan"><polygon points="78.66 107.95 187.47 107.95 188.11 105.38 79.31 105.38 78.66 107.95" style="fill: rgb(235, 235, 235); opacity: 0.6; transform-origin: 133.385px 106.665px;" class="animable"></polygon></g><g id="elkcykm31hukf"><polygon points="78.66 112.15 187.47 112.15 188.11 109.59 79.31 109.59 78.66 112.15" style="fill: rgb(235, 235, 235); opacity: 0.6; transform-origin: 133.385px 110.87px;" class="animable"></polygon></g><rect x="58.78" y="67" width="156.92" height="3.79" style="fill: rgb(240, 240, 240); transform-origin: 137.24px 68.895px;" id="elcha3blvlei5" class="animable"></rect><g id="el1tma9qv2ji8"><rect x="204.61" y="63.81" width="8.25" height="242.84" style="fill: rgb(250, 250, 250); opacity: 0.8; transform-origin: 208.735px 185.23px;" class="animable"></rect></g><g id="elcft0zb2ksw"><rect x="204.61" y="63.81" width="2.14" height="242.84" style="fill: rgb(240, 240, 240); opacity: 0.8; transform-origin: 205.68px 185.23px;" class="animable"></rect></g><g id="eleibkj5ze604"><rect x="196.36" y="63.81" width="8.25" height="242.84" style="fill: rgb(250, 250, 250); opacity: 0.8; transform-origin: 200.485px 185.23px;" class="animable"></rect></g><g id="elbgiuheh77nk"><rect x="196.36" y="63.81" width="2.14" height="242.84" style="fill: rgb(240, 240, 240); opacity: 0.8; transform-origin: 197.43px 185.23px;" class="animable"></rect></g><g id="elei4i2gyplqh"><rect x="188.11" y="63.81" width="8.25" height="242.84" style="fill: rgb(250, 250, 250); opacity: 0.8; transform-origin: 192.235px 185.23px;" class="animable"></rect></g><g id="els2116ctxaxm"><rect x="77.09" y="63.81" width="8.25" height="242.84" style="fill: rgb(250, 250, 250); opacity: 0.8; transform-origin: 81.215px 185.23px;" class="animable"></rect></g><g id="elj0rudtleyp"><rect x="77.09" y="63.81" width="2.14" height="242.84" style="fill: rgb(240, 240, 240); opacity: 0.8; transform-origin: 78.16px 185.23px;" class="animable"></rect></g><g id="el27hruyy2bp7"><rect x="68.84" y="63.81" width="8.25" height="242.84" style="fill: rgb(250, 250, 250); opacity: 0.8; transform-origin: 72.965px 185.23px;" class="animable"></rect></g><g id="elra86t3mhbof"><rect x="68.84" y="63.81" width="2.14" height="242.84" style="fill: rgb(240, 240, 240); opacity: 0.8; transform-origin: 69.91px 185.23px;" class="animable"></rect></g><g id="elx16mp0plzp"><rect x="60.59" y="63.81" width="8.25" height="242.84" style="fill: rgb(250, 250, 250); opacity: 0.8; transform-origin: 64.715px 185.23px;" class="animable"></rect></g><g id="elwuzby5db1ld"><rect x="375.76" y="291.61" width="16.81" height="84" style="fill: rgb(240, 240, 240); transform-origin: 384.165px 333.61px; transform: rotate(180deg);" class="animable"></rect></g><g id="elmmnkqcouftm"><rect x="243.98" y="375.61" width="142.46" height="6.79" style="fill: rgb(240, 240, 240); transform-origin: 315.21px 379.005px; transform: rotate(180deg);" class="animable"></rect></g><rect x="237.85" y="291.61" width="137.92" height="84" style="fill: rgb(245, 245, 245); transform-origin: 306.81px 333.61px;" id="elmhl25ss7dp" class="animable"></rect><rect x="250.41" y="300.51" width="112.79" height="27.94" style="fill: rgb(240, 240, 240); transform-origin: 306.805px 314.48px;" id="eldyz3vvd2z1f" class="animable"></rect><rect x="250.41" y="334.85" width="112.79" height="27.94" style="fill: rgb(240, 240, 240); transform-origin: 306.805px 348.82px;" id="eli0us5arptg8" class="animable"></rect><path d="M293.44,304.36h26.73a2.41,2.41,0,0,0,2.41-2.41h0a2.42,2.42,0,0,0-2.41-2.41H293.44A2.42,2.42,0,0,0,291,302h0A2.41,2.41,0,0,0,293.44,304.36Z" style="fill: rgb(245, 245, 245); transform-origin: 306.79px 301.95px;" id="elt66x4oq1cte" class="animable"></path><path d="M293.44,338.71h26.73a2.42,2.42,0,0,0,2.41-2.41h0a2.41,2.41,0,0,0-2.41-2.41H293.44A2.41,2.41,0,0,0,291,336.3h0A2.42,2.42,0,0,0,293.44,338.71Z" style="fill: rgb(245, 245, 245); transform-origin: 306.79px 336.3px;" id="elb41qd14eepm" class="animable"></path><g id="elgkiyr2pcxca"><rect x="233.59" y="288.33" width="142.18" height="3.28" style="fill: rgb(240, 240, 240); transform-origin: 304.68px 289.97px; transform: rotate(180deg);" class="animable"></rect></g><rect x="375.76" y="288.33" width="21.28" height="3.28" style="fill: rgb(230, 230, 230); transform-origin: 386.4px 289.97px;" id="el96ngf3cwh3g" class="animable"></rect><path d="M108.34,376.83h0a7.25,7.25,0,0,1-7.23-7.23V298.84a7.25,7.25,0,0,1,7.23-7.23h0a7.24,7.24,0,0,1,7.22,7.23V369.6A7.24,7.24,0,0,1,108.34,376.83Z" style="fill: rgb(245, 245, 245); transform-origin: 108.335px 334.22px;" id="el2jiqlwcdszg" class="animable"></path><path d="M112.47,374h0a4.9,4.9,0,0,1-4.88-4.88V299.34a4.9,4.9,0,0,1,4.88-4.88h0a4.9,4.9,0,0,1,4.89,4.88V369.1A4.9,4.9,0,0,1,112.47,374Z" style="fill: rgb(235, 235, 235); transform-origin: 112.475px 334.23px;" id="elzv0d1gp235m" class="animable"></path><path d="M118.83,376.83h0a7.24,7.24,0,0,1-7.22-7.23V298.84a7.24,7.24,0,0,1,7.22-7.23h0a7.25,7.25,0,0,1,7.23,7.23V369.6A7.25,7.25,0,0,1,118.83,376.83Z" style="fill: rgb(245, 245, 245); transform-origin: 118.835px 334.22px;" id="el3xpxy76g8sq" class="animable"></path><path d="M123,374h0a4.89,4.89,0,0,1-4.88-4.88V299.34a4.89,4.89,0,0,1,4.88-4.88h0a4.89,4.89,0,0,1,4.88,4.88V369.1A4.89,4.89,0,0,1,123,374Z" style="fill: rgb(235, 235, 235); transform-origin: 123px 334.23px;" id="el3l24nb4bgvn" class="animable"></path><rect x="122.1" y="291.61" width="14.45" height="85.22" rx="7.23" style="fill: rgb(245, 245, 245); transform-origin: 129.325px 334.22px;" id="ely5h6jsbg5y" class="animable"></rect><path d="M133.47,374h0a4.89,4.89,0,0,1-4.88-4.88V299.34a4.89,4.89,0,0,1,4.88-4.88h0a4.89,4.89,0,0,1,4.88,4.88V369.1A4.89,4.89,0,0,1,133.47,374Z" style="fill: rgb(235, 235, 235); transform-origin: 133.47px 334.23px;" id="elimnkdg8zjsa" class="animable"></path><path d="M139.83,376.83h0a7.25,7.25,0,0,1-7.23-7.23V298.84a7.25,7.25,0,0,1,7.23-7.23h0a7.25,7.25,0,0,1,7.23,7.23V369.6A7.25,7.25,0,0,1,139.83,376.83Z" style="fill: rgb(245, 245, 245); transform-origin: 139.83px 334.22px;" id="ellj51bl4unk" class="animable"></path><path d="M144,374h0a4.9,4.9,0,0,1-4.89-4.88V299.34a4.9,4.9,0,0,1,4.89-4.88h0a4.9,4.9,0,0,1,4.88,4.88V369.1A4.9,4.9,0,0,1,144,374Z" style="fill: rgb(235, 235, 235); transform-origin: 143.995px 334.23px;" id="elcn6decqab" class="animable"></path><path d="M150.33,376.83h0a7.25,7.25,0,0,1-7.23-7.23V298.84a7.25,7.25,0,0,1,7.23-7.23h0a7.25,7.25,0,0,1,7.23,7.23V369.6A7.25,7.25,0,0,1,150.33,376.83Z" style="fill: rgb(245, 245, 245); transform-origin: 150.33px 334.22px;" id="el8ss6ul0lweq" class="animable"></path><path d="M154.47,374h0a4.9,4.9,0,0,1-4.89-4.88V299.34a4.9,4.9,0,0,1,4.89-4.88h0a4.9,4.9,0,0,1,4.88,4.88V369.1A4.9,4.9,0,0,1,154.47,374Z" style="fill: rgb(235, 235, 235); transform-origin: 154.465px 334.23px;" id="elz6qxrj5py78" class="animable"></path><path d="M160.83,376.83h0a7.25,7.25,0,0,1-7.23-7.23V298.84a7.25,7.25,0,0,1,7.23-7.23h0a7.24,7.24,0,0,1,7.22,7.23V369.6A7.24,7.24,0,0,1,160.83,376.83Z" style="fill: rgb(245, 245, 245); transform-origin: 160.825px 334.22px;" id="ely48z0buasr" class="animable"></path><path d="M165,374h0a4.9,4.9,0,0,1-4.88-4.88V299.34a4.9,4.9,0,0,1,4.88-4.88h0a4.9,4.9,0,0,1,4.89,4.88V369.1A4.9,4.9,0,0,1,165,374Z" style="fill: rgb(235, 235, 235); transform-origin: 165.005px 334.23px;" id="elu7mp6zqplvf" class="animable"></path><path d="M171.33,376.83h0a7.25,7.25,0,0,1-7.23-7.23V298.84a7.25,7.25,0,0,1,7.23-7.23h0a7.24,7.24,0,0,1,7.22,7.23V369.6A7.24,7.24,0,0,1,171.33,376.83Z" style="fill: rgb(245, 245, 245); transform-origin: 171.325px 334.22px;" id="elys88dsj7jf" class="animable"></path><rect x="157.39" y="364.15" width="24.4" height="3.2" rx="1.6" style="fill: rgb(245, 245, 245); transform-origin: 169.59px 365.75px;" id="el4yiujzi4q7o" class="animable"></rect><path d="M180.19,306.38H159a1.6,1.6,0,0,1-1.6-1.6h0a1.6,1.6,0,0,1,1.6-1.6h21.2a1.6,1.6,0,0,1,1.6,1.6h0A1.6,1.6,0,0,1,180.19,306.38Z" style="fill: rgb(245, 245, 245); transform-origin: 169.6px 304.78px;" id="elqo1deb97ie" class="animable"></path></g><g id="freepik--Shadow--inject-1" class="animable" style="transform-origin: 250px 416.24px;"><ellipse id="freepik--path--inject-1" cx="250" cy="416.24" rx="193.89" ry="11.32" style="fill: rgb(245, 245, 245); transform-origin: 250px 416.24px;" class="animable"></ellipse></g><g id="freepik--information-tab--inject-1" class="animable" style="transform-origin: 295.325px 168.185px;"><path d="M409.83,248.66h-239a9.25,9.25,0,0,1-9.32-9.93l8.76-141.08a10.75,10.75,0,0,1,10.55-9.94h239a9.26,9.26,0,0,1,9.32,9.94l-8.76,141.08A10.75,10.75,0,0,1,409.83,248.66Z" style="fill: rgb(0, 255, 136); transform-origin: 295.325px 168.185px;" id="eldze0eznemcm" class="animable"></path><g id="elzmr6gtkv1gf"><path d="M409.83,248.66h-239a9.25,9.25,0,0,1-9.32-9.93l8.76-141.08a10.75,10.75,0,0,1,10.55-9.94h239a9.26,9.26,0,0,1,9.32,9.94l-8.76,141.08A10.75,10.75,0,0,1,409.83,248.66Z" style="fill: rgb(255, 255, 255); opacity: 0.8; transform-origin: 295.325px 168.185px;" class="animable"></path></g><g id="elywweiybixj"><path d="M201.46,128.36H173a2.61,2.61,0,0,1-2.64-2.81l.81-13a3,3,0,0,1,3-2.82h28.46Z" style="fill: rgb(255, 255, 255); opacity: 0.4; transform-origin: 186.491px 119.045px;" class="animable"></path></g><path d="M419.67,90.2H211.28a8,8,0,0,0-7.91,7.45l-2,32.37H172.9a3,3,0,0,0-3,2.82l-.75,12.2a2.61,2.61,0,0,0,2.64,2.82h28.46l-5.64,90.87a6.92,6.92,0,0,0,7,7.45H410a8,8,0,0,0,7.91-7.45l8.76-141.08A6.91,6.91,0,0,0,419.67,90.2Z" style="fill: rgb(255, 255, 255); transform-origin: 297.916px 168.19px;" id="el0bgyrunlz1x6" class="animable"></path><g id="el3ltsjth84di"><path d="M199,167.36H170.58a2.62,2.62,0,0,1-2.65-2.82l.76-12.2a3,3,0,0,1,3-2.82h28.46Z" style="fill: rgb(255, 255, 255); opacity: 0.4; transform-origin: 184.036px 158.44px;" class="animable"></path></g><g id="el9awr7tskzh9"><path d="M197.83,186.86H169.37a2.62,2.62,0,0,1-2.65-2.82l.76-12.21a3,3,0,0,1,3-2.81h28.46Z" style="fill: rgb(255, 255, 255); opacity: 0.4; transform-origin: 182.826px 177.94px;" class="animable"></path></g><g id="elwifl032yvuk"><path d="M196.62,206.36H168.16a2.63,2.63,0,0,1-2.65-2.82l.76-12.21a3.05,3.05,0,0,1,3-2.82h28.46Z" style="fill: rgb(255, 255, 255); opacity: 0.4; transform-origin: 181.617px 197.435px;" class="animable"></path></g><g id="elujvf7nf8ni"><path d="M195.41,225.85H167A2.62,2.62,0,0,1,164.3,223l.76-12.2a3,3,0,0,1,3-2.82h28.47Z" style="fill: rgb(255, 255, 255); opacity: 0.4; transform-origin: 180.41px 216.916px;" class="animable"></path></g><g id="eljomx6ce5d6"><path d="M172.63,145.59a1.13,1.13,0,0,1-1.15-1.23l.66-10.71a1.48,1.48,0,0,1,1.44-1.36H197.7a1.13,1.13,0,0,1,1.15,1.23l-.66,10.72a1.48,1.48,0,0,1-1.44,1.35Z" style="fill: rgb(0, 255, 136); opacity: 0.2; transform-origin: 185.165px 138.94px;" class="animable"></path></g><g id="elwx97gs9zdd"><path d="M253,107H218.57a4.47,4.47,0,0,1-4.49-4.79h0a5.17,5.17,0,0,1,5.08-4.78h34.41a4.46,4.46,0,0,1,4.49,4.78h0A5.19,5.19,0,0,1,253,107Z" style="fill: rgb(0, 255, 136); opacity: 0.3; transform-origin: 236.07px 102.215px;" class="animable"></path></g><path d="M417,102.22a5.17,5.17,0,0,1-5.08,4.79,4.46,4.46,0,0,1-4.49-4.79,5.16,5.16,0,0,1,5.08-4.78A4.45,4.45,0,0,1,417,102.22Z" style="fill: rgb(0, 255, 136); transform-origin: 412.215px 102.225px;" id="el4nptt33qvu4" class="animable"></path><g id="el252lm0x0172"><path d="M319.53,188.84H218a8.83,8.83,0,0,1-8.9-9.49L212.15,130a10.23,10.23,0,0,1,10.07-9.48H323.78a8.81,8.81,0,0,1,8.89,9.48l-3.06,49.34A10.26,10.26,0,0,1,319.53,188.84Zm-97.34-67.9a9.79,9.79,0,0,0-9.63,9.07l-3.06,49.34a8.43,8.43,0,0,0,8.51,9.07H319.56a9.79,9.79,0,0,0,9.63-9.07L332.26,130a8.44,8.44,0,0,0-8.51-9.07Z" style="fill: rgb(0, 255, 136); opacity: 0.4; transform-origin: 270.885px 154.68px;" class="animable"></path></g><path d="M230.33,153.34l14.57,9.43a33,33,0,0,1,11.33-10.27L248.4,137A52.81,52.81,0,0,0,230.33,153.34Z" style="fill: rgb(0, 255, 136); transform-origin: 243.28px 149.885px;" id="el52q8b2g3v5d" class="animable"></path><g id="el4yki85zgsfa"><path d="M230.33,153.34l14.57,9.43a33,33,0,0,1,11.33-10.27L248.4,137A52.81,52.81,0,0,0,230.33,153.34Z" style="fill: rgb(255, 255, 255); opacity: 0.8; transform-origin: 243.28px 149.885px;" class="animable"></path></g><path d="M221.55,178.6h17.84a31.51,31.51,0,0,1,5.51-15.83l-14.57-9.43A50.28,50.28,0,0,0,221.55,178.6Z" style="fill: rgb(38, 50, 56); transform-origin: 233.225px 165.97px;" id="elshevmwy0maf" class="animable"></path><path d="M272.36,130.76a49.82,49.82,0,0,0-24,6.22l7.83,15.52a31.31,31.31,0,0,1,15-3.89,27.86,27.86,0,0,1,28.13,30h17.84C318.88,152.18,298.79,130.76,272.36,130.76Z" style="fill: rgb(0, 255, 136); transform-origin: 282.811px 154.685px;" id="el106827tr9drq" class="animable"></path><path d="M260.78,207h-52.3a.85.85,0,0,1-.85-.91l.23-3.68a1,1,0,0,1,1-.91h52.3Z" style="fill: rgb(0, 255, 136); transform-origin: 234.394px 204.25px;" id="ela55kgltmmxk" class="animable"></path><g id="el1d8cf2r7bzw"><path d="M260.78,207h66a1,1,0,0,0,1-.91l.23-3.68a.85.85,0,0,0-.85-.91h-66Z" style="fill: rgb(0, 255, 136); opacity: 0.2; transform-origin: 294.396px 204.25px;" class="animable"></path></g><path d="M296.3,221.51H207.58a.84.84,0,0,1-.85-.91l.23-3.67a1,1,0,0,1,1-.91h88.72Z" style="fill: rgb(0, 255, 136); transform-origin: 251.704px 218.765px;" id="el266u5jphv46" class="animable"></path><g id="el78qlrrjyhej"><path d="M296.3,221.51h29.58a1,1,0,0,0,1-.91l.23-3.67a.84.84,0,0,0-.85-.91H296.64Z" style="fill: rgb(0, 255, 136); opacity: 0.2; transform-origin: 311.706px 218.765px;" class="animable"></path></g><path d="M217.1,236H206.68a.85.85,0,0,1-.85-.91l.23-3.68a1,1,0,0,1,1-.91h10.42Z" style="fill: rgb(0, 255, 136); transform-origin: 211.654px 233.25px;" id="el0mld2i7aujf" class="animable"></path><g id="el4a2z9chyqs8"><path d="M217.1,236H325a1,1,0,0,0,1-.91l.23-3.68a.85.85,0,0,0-.86-.91H217.44Z" style="fill: rgb(0, 255, 136); opacity: 0.2; transform-origin: 271.666px 233.25px;" class="animable"></path></g><path d="M348.77,236.45a.38.38,0,0,1-.39-.41l7.16-115.31a.44.44,0,0,1,.44-.41.38.38,0,0,1,.38.41L349.2,236A.44.44,0,0,1,348.77,236.45Z" style="fill: rgb(0, 255, 136); transform-origin: 352.37px 178.385px;" id="elawvgqrkmcrp" class="animable"></path><path d="M356.83,150.94a3,3,0,0,1-2.93,2.76,2.57,2.57,0,0,1-2.59-2.76,3,3,0,0,1,2.94-2.76A2.55,2.55,0,0,1,356.83,150.94Z" style="fill: rgb(255, 255, 255); transform-origin: 354.071px 150.94px;" id="elgm71tuyrngu" class="animable"></path><path d="M353.88,154.11a3,3,0,0,1-3-3.17,3.43,3.43,0,0,1,3.37-3.18,3,3,0,0,1,3,3.18A3.42,3.42,0,0,1,353.88,154.11Zm.34-5.52a2.53,2.53,0,0,0-2.49,2.35,2.18,2.18,0,0,0,2.2,2.34,2.53,2.53,0,0,0,2.49-2.34A2.18,2.18,0,0,0,354.22,148.59Z" style="fill: rgb(0, 255, 136); transform-origin: 354.065px 150.935px;" id="elxwdc0awwgj" class="animable"></path><path d="M355.29,175.78a3,3,0,0,1-2.93,2.76,2.57,2.57,0,0,1-2.59-2.76A3,3,0,0,1,352.7,173,2.56,2.56,0,0,1,355.29,175.78Z" style="fill: rgb(255, 255, 255); transform-origin: 352.531px 175.77px;" id="eleckm9je2knf" class="animable"></path><path d="M352.34,179a3,3,0,0,1-3-3.17,3.43,3.43,0,0,1,3.37-3.18,3,3,0,0,1,3,3.18A3.42,3.42,0,0,1,352.34,179Zm.34-5.52a2.53,2.53,0,0,0-2.49,2.35,2.17,2.17,0,0,0,2.2,2.34,2.53,2.53,0,0,0,2.49-2.34A2.18,2.18,0,0,0,352.68,173.43Z" style="fill: rgb(0, 255, 136); transform-origin: 352.525px 175.825px;" id="elpwmgvoll4eb" class="animable"></path><polygon points="351.78 187.86 348.13 193.57 354.73 193.57 351.78 187.86" style="fill: rgb(255, 255, 255); transform-origin: 351.43px 190.715px;" id="elb6wau8tk57c" class="animable"></polygon><path d="M354.7,194h-6.6a.39.39,0,0,1-.34-.2.42.42,0,0,1,0-.42l3.66-5.71a.42.42,0,0,1,.71,0l3,5.71a.44.44,0,0,1-.4.62Zm-5.83-.82H354l-2.3-4.48Z" style="fill: rgb(0, 255, 136); transform-origin: 351.436px 190.737px;" id="el48bwukb4gfl" class="animable"></path><path d="M398.45,236.45a.38.38,0,0,1-.39-.41l7.16-115.31a.44.44,0,0,1,.44-.41.38.38,0,0,1,.39.41L398.89,236A.45.45,0,0,1,398.45,236.45Z" style="fill: rgb(0, 255, 136); transform-origin: 402.055px 178.385px;" id="el82bg1q2cubp" class="animable"></path><path d="M403.67,196.71a2.56,2.56,0,0,0-2.58-2.76,3,3,0,0,0-2.94,2.76,2.57,2.57,0,0,0,2.59,2.76A3,3,0,0,0,403.67,196.71Z" style="fill: rgb(255, 255, 255); transform-origin: 400.91px 196.71px;" id="ell6ltv1nzepm" class="animable"></path><path d="M400.72,199.88a3,3,0,0,1-3-3.17,3.42,3.42,0,0,1,3.37-3.17,3,3,0,0,1,3,3.17A3.42,3.42,0,0,1,400.72,199.88Zm.34-5.52a2.54,2.54,0,0,0-2.49,2.35,2.19,2.19,0,0,0,2.2,2.35,2.54,2.54,0,0,0,2.49-2.35A2.19,2.19,0,0,0,401.06,194.36Z" style="fill: rgb(0, 255, 136); transform-origin: 400.905px 196.71px;" id="el8jt38vuedyl" class="animable"></path><path d="M407.53,134.6a2.56,2.56,0,0,0-2.59-2.76A3,3,0,0,0,402,134.6a2.57,2.57,0,0,0,2.59,2.76A3,3,0,0,0,407.53,134.6Z" style="fill: rgb(255, 255, 255); transform-origin: 404.765px 134.6px;" id="elpc9o41zod5" class="animable"></path><path d="M404.57,137.77a2.94,2.94,0,0,1-3-3.17,3.43,3.43,0,0,1,3.37-3.18,3,3,0,0,1,3,3.18A3.43,3.43,0,0,1,404.57,137.77Zm.35-5.52a2.53,2.53,0,0,0-2.49,2.35,2.17,2.17,0,0,0,2.2,2.34,2.53,2.53,0,0,0,2.49-2.34A2.18,2.18,0,0,0,404.92,132.25Z" style="fill: rgb(0, 255, 136); transform-origin: 404.753px 134.595px;" id="el467kvta4cl9" class="animable"></path><polygon points="402.64 168.92 399.7 163.2 406.29 163.2 402.64 168.92" style="fill: rgb(255, 255, 255); transform-origin: 402.995px 166.06px;" id="el63kons3sfyg" class="animable"></polygon><path d="M402.61,169.33a.38.38,0,0,1-.34-.21l-2.95-5.71a.43.43,0,0,1,0-.41.44.44,0,0,1,.37-.21h6.6a.39.39,0,0,1,.35.21.43.43,0,0,1,0,.41L403,169.12A.47.47,0,0,1,402.61,169.33Zm-2.22-5.71,2.3,4.47,2.86-4.47Z" style="fill: rgb(0, 255, 136); transform-origin: 402.98px 166.06px;" id="elvjvoikh80x" class="animable"></path><path d="M373.61,236.45a.38.38,0,0,1-.39-.41l7.16-115.31a.44.44,0,0,1,.44-.41.37.37,0,0,1,.38.41L374.05,236A.45.45,0,0,1,373.61,236.45Z" style="fill: rgb(0, 255, 136); transform-origin: 377.21px 178.385px;" id="elbxvooy3hyyw" class="animable"></path><path d="M381.24,158a3,3,0,0,1-2.94,2.76,2.55,2.55,0,0,1-2.58-2.76,3,3,0,0,1,2.93-2.76A2.57,2.57,0,0,1,381.24,158Z" style="fill: rgb(255, 255, 255); transform-origin: 378.479px 158px;" id="el5exquy89hip" class="animable"></path><path d="M378.28,161.2a3,3,0,0,1-3-3.18,3.42,3.42,0,0,1,3.37-3.17,3,3,0,0,1,3,3.17A3.43,3.43,0,0,1,378.28,161.2Zm.34-5.53a2.54,2.54,0,0,0-2.49,2.35,2.19,2.19,0,0,0,2.2,2.35,2.54,2.54,0,0,0,2.49-2.35A2.18,2.18,0,0,0,378.62,155.67Z" style="fill: rgb(0, 255, 136); transform-origin: 378.465px 158.025px;" id="elrjff4ymhhf8" class="animable"></path><path d="M377.81,213.26a3,3,0,0,1-2.93,2.76,2.56,2.56,0,0,1-2.59-2.76,3,3,0,0,1,2.93-2.76A2.57,2.57,0,0,1,377.81,213.26Z" style="fill: rgb(255, 255, 255); transform-origin: 375.05px 213.26px;" id="elwduaqv4o89k" class="animable"></path><path d="M374.85,216.43a3,3,0,0,1-3-3.17,3.43,3.43,0,0,1,3.37-3.18,3,3,0,0,1,3,3.18A3.42,3.42,0,0,1,374.85,216.43Zm.34-5.52a2.53,2.53,0,0,0-2.49,2.35,2.18,2.18,0,0,0,2.2,2.34,2.53,2.53,0,0,0,2.49-2.34A2.18,2.18,0,0,0,375.19,210.91Z" style="fill: rgb(0, 255, 136); transform-origin: 375.035px 213.255px;" id="eld3lb17fnip" class="animable"></path><polygon points="380.46 126.12 376.8 131.84 383.4 131.84 380.46 126.12" style="fill: rgb(255, 255, 255); transform-origin: 380.1px 128.98px;" id="elkm8fs03pgli" class="animable"></polygon><path d="M383.37,132.25h-6.59a.39.39,0,0,1-.35-.21.43.43,0,0,1,0-.41l3.65-5.71a.43.43,0,0,1,.72,0l2.94,5.71a.4.4,0,0,1,0,.41A.47.47,0,0,1,383.37,132.25Zm-5.82-.83h5.16L380.4,127Z" style="fill: rgb(0, 255, 136); transform-origin: 380.087px 128.988px;" id="elxygkr5fuy0d" class="animable"></path></g><g id="freepik--Character--inject-1" class="animable" style="transform-origin: 151.571px 254.564px;"><path d="M111.54,155.81l-1,4.87-1,5c-.66,3.32-1.22,6.64-1.73,9.9-.26,1.63-.46,3.24-.63,4.83s-.32,3.13-.4,4.62a40,40,0,0,0,0,4.08c0,1.17.26,2.17.21,2.28l-.67-1.15c-.3-.3-.85-.58-.94-.45s.26.36.9.53a13.51,13.51,0,0,0,2.51.35,29.74,29.74,0,0,0,3.22-.08,65.84,65.84,0,0,0,7.23-1c1.25-.24,2.52-.49,3.78-.77l3.74-.81.5-.11a5.25,5.25,0,0,1,4.24,9.34l-1.87,1.38-1.84,1.26c-1.26.8-2.53,1.58-3.85,2.3a55.3,55.3,0,0,1-8.46,3.78,41.08,41.08,0,0,1-4.87,1.31,26.44,26.44,0,0,1-5.69.54,20.16,20.16,0,0,1-7-1.34,16.42,16.42,0,0,1-7.2-5.61,7.56,7.56,0,0,1-.52-.86l-.15-.29a28,28,0,0,1-2.55-8,47.2,47.2,0,0,1-.64-6.62q-.11-3.13,0-6.1t.41-5.85c.34-3.84.91-7.58,1.56-11.29.34-1.85.68-3.69,1.1-5.52.2-.92.4-1.84.63-2.76l.74-2.83a10.47,10.47,0,0,1,20.39,4.73Z" style="fill: rgb(0, 255, 136); transform-origin: 110.207px 175.37px;" id="elndcrzj30r99" class="animable"></path><g id="elflnl15werbn"><path d="M111.54,155.81l-1,4.87-1,5c-.66,3.32-1.22,6.64-1.73,9.9-.26,1.63-.46,3.24-.63,4.83s-.32,3.13-.4,4.62a40,40,0,0,0,0,4.08c0,1.17.26,2.17.21,2.28l-.67-1.15c-.3-.3-.85-.58-.94-.45s.26.36.9.53a13.51,13.51,0,0,0,2.51.35,29.74,29.74,0,0,0,3.22-.08,65.84,65.84,0,0,0,7.23-1c1.25-.24,2.52-.49,3.78-.77l3.74-.81.5-.11a5.25,5.25,0,0,1,4.24,9.34l-1.87,1.38-1.84,1.26c-1.26.8-2.53,1.58-3.85,2.3a55.3,55.3,0,0,1-8.46,3.78,41.08,41.08,0,0,1-4.87,1.31,26.44,26.44,0,0,1-5.69.54,20.16,20.16,0,0,1-7-1.34,16.42,16.42,0,0,1-7.2-5.61,7.56,7.56,0,0,1-.52-.86l-.15-.29a28,28,0,0,1-2.55-8,47.2,47.2,0,0,1-.64-6.62q-.11-3.13,0-6.1t.41-5.85c.34-3.84.91-7.58,1.56-11.29.34-1.85.68-3.69,1.1-5.52.2-.92.4-1.84.63-2.76l.74-2.83a10.47,10.47,0,0,1,20.39,4.73Z" style="opacity: 0.2; transform-origin: 110.207px 175.37px;" class="animable"></path></g><path d="M86.23,411.58S76.77,403,77,400.28l-7.86-4-4.68,8.08,4.34,2.43L70,406.4l.79,1.37c3.92,2,12.48,5.91,15.47,5.8A1.92,1.92,0,0,0,86.23,411.58Z" style="fill: rgb(38, 50, 56); transform-origin: 75.4916px 404.926px;" id="elu5ghvabh828" class="animable"></path><path d="M86.91,310.62c5.72-41,3.85-65.87,9.86-86.06l37.2-3s-16.49,65-24,92.06-31.23,88.42-31.23,88.42l-10.35-5.3S76.84,342.32,86.91,310.62Z" style="fill: rgb(38, 50, 56); transform-origin: 101.18px 311.8px;" id="el11w2japkcfk8" class="animable"></path><g id="elicboa2usj2a"><path d="M117.25,251.87c-2.53,5.85-7.47,43.42-7.45,62.18,0-.13.08-.28.12-.42,2.65-9.51,6.42-23.72,10.18-38.13Z" style="opacity: 0.2; transform-origin: 114.95px 282.96px;" class="animable"></path></g><path d="M146,412.92s-15.43-3.5-16.14-6h-9.79l-.81,9.33h5.44l1-.86,1.22.86c4.4,0,17.12,0,19.86-1.6C146.8,413.23,146,412.92,146,412.92Z" style="fill: rgb(38, 50, 56); transform-origin: 133.02px 411.585px;" id="ela2asc2zjknm" class="animable"></path><path d="M119.87,311.77c-8.17-55.51-8.17-89.88-8.17-89.88l36.4-.59s-4.37,66.2-5.89,93.93c-1.57,28.83-10.57,92.29-10.57,92.29H119S116,347.42,119.87,311.77Z" style="fill: rgb(38, 50, 56); transform-origin: 129.9px 314.41px;" id="elwy5i2jf3p" class="animable"></path><path d="M115.92,117.67c-1.73,10.89-4.87,16.73-7,22.14,3.67,3.42,11.53,7.65,19.46,7.54s6.49-5.48,4.36-8.25c-5.69-2.87-5.91-5.77-4.52-8.31Z" style="fill: rgb(127, 62, 59); transform-origin: 121.668px 132.511px;" id="elgwk7bgisibp" class="animable"></path><path d="M102.32,141.35s5.06-5.95,7.06-6.95,17.13,1,20.7,1.72,7.92,6,7.92,6Z" style="fill: rgb(38, 50, 56); transform-origin: 120.16px 138.123px;" id="el57znqfpulcx" class="animable"></path><path d="M141,116.76c-.16.72.09,1.38.56,1.48s1-.4,1.14-1.12-.09-1.38-.56-1.48S141.14,116,141,116.76Z" style="fill: rgb(38, 50, 56); transform-origin: 141.846px 116.94px;" id="elmfi3wh4gke" class="animable"></path><path d="M140.71,117.75a26.08,26.08,0,0,0,2.06,6.87c-1.54.91-3.58-.1-3.58-.1Z" style="fill: rgb(99, 15, 15); transform-origin: 140.98px 121.375px;" id="el9nl1vff8i6c" class="animable"></path><path d="M143.46,112.63a.41.41,0,0,1-.4,0,3.39,3.39,0,0,0-3.11.1.42.42,0,0,1-.59-.12.43.43,0,0,1,.12-.6,4.23,4.23,0,0,1,3.92-.18.43.43,0,0,1,.22.57A.38.38,0,0,1,143.46,112.63Z" style="fill: rgb(38, 50, 56); transform-origin: 141.472px 112.118px;" id="el37yoqwudnec" class="animable"></path><path d="M117.18,109.46c-1.43,8.92-2.73,14.07.72,19.55,5.18,8.24,17,6.56,21.07-1.78,3.68-7.5,5.41-20.83-2.45-26.19A12.46,12.46,0,0,0,117.18,109.46Z" style="fill: rgb(127, 62, 59); transform-origin: 128.89px 116.639px;" id="elnhhgjki8pi" class="animable"></path><path d="M133.39,118c7.22,1.56,5.12-7.36,3.39-8.25,4.34,2.6,7.22-.42,7-3.14,3.32-.55,3.15-6,.87-6.17-1.44-3.77-8.17-6.94-9.42-4.61-3.63-4.22-13.35-3.5-11.94-.44-3.69-.72-11.55-.39-8.92,5.17-5.61.72-5.34,10.32-1.68,11.32-3.83,2.12-.12,9.36,1.53,13.9S132.31,126.28,133.39,118Z" style="fill: rgb(38, 50, 56); transform-origin: 128.178px 110.275px;" id="eljoue6pb6irq" class="animable"></path><path d="M129.28,117.09a7.61,7.61,0,0,0,1.18,5.45c1.41,2,3.59.75,4.44-1.66.76-2.16.94-5.8-1.07-6.89S129.65,114.65,129.28,117.09Z" style="fill: rgb(127, 62, 59); transform-origin: 132.306px 118.597px;" id="eletexk4y8q4w" class="animable"></path><path d="M102.83,140.35c12.3-1.51,29.75-1.38,41.33.64A13.17,13.17,0,0,1,155,152.91c1.44,17.67-2.47,48.55-5.85,79.64-27.25,9.14-54.91-.13-54.91-.13-.61-6.27,2.77-26.82,4.88-37.79-1.55-11.32-5.48-24.29-7.69-39.34A13.15,13.15,0,0,1,102.83,140.35Z" style="fill: rgb(0, 255, 136); transform-origin: 123.3px 187.955px;" id="elk9tloz28t39" class="animable"></path><g id="eldlafbtyztpg"><path d="M139.84,165.09c1.86,10.64,7.75,23.32,13.14,31.71.74-7.35,1.36-14.35,1.75-20.81Z" style="opacity: 0.2; transform-origin: 147.285px 180.945px;" class="animable"></path></g><path d="M229.93,140.44a17.77,17.77,0,0,0-19.06,30c-1.78,2.4-7,9.45-8.59,12.17-2,3.29-3,6.25-1.62,7.07s3.48-1.51,5.43-4.8c1.62-2.71,5.34-10.65,6.59-13.37a17.77,17.77,0,0,0,17.25-31.06Zm4.27,23.23a15.54,15.54,0,1,1-5.41-21.31A15.53,15.53,0,0,1,234.2,163.67Z" style="fill: rgb(0, 255, 136); transform-origin: 219.352px 163.757px;" id="elrwdm65p8wj" class="animable"></path><g id="elq60s02xldj9"><path d="M234.93,164.1a16.39,16.39,0,1,1-5.71-22.46A16.38,16.38,0,0,1,234.93,164.1Z" style="fill: rgb(0, 255, 136); opacity: 0.2; transform-origin: 220.842px 155.726px;" class="animable"></path></g><path d="M209.43,179.66l-2.17-1.92a3.36,3.36,0,0,0-3-.76l-5,1.14a6.28,6.28,0,0,0-4.4,3.72l-.48,1.16c3.37,3.43,9.54,4.66,9.54,4.66l1.73.54a2.79,2.79,0,0,0,3.57-1.76l1.13-3.39A3.27,3.27,0,0,0,209.43,179.66Z" style="fill: rgb(127, 62, 59); transform-origin: 202.439px 182.624px;" id="el3g1qlqijyag" class="animable"></path><path d="M154.47,149.29l2,4.39,2.11,4.48c1.41,3,2.9,5.89,4.39,8.72q1.13,2.12,2.32,4.11c.77,1.33,1.56,2.61,2.36,3.79A38.85,38.85,0,0,0,170,177.9c.7.86,1.42,1.48,1.44,1.58l-1.24-.51a12,12,0,0,0,4.36,1.1,43.06,43.06,0,0,0,6.37.08c2.28-.1,4.63-.34,7-.62,1.19-.15,2.4-.29,3.61-.47l3.58-.48.49-.07a5.26,5.26,0,0,1,3.6,9.6l-1.82,1.2-1.79,1.08c-1.21.69-2.43,1.36-3.69,2s-2.53,1.21-3.84,1.75-2.66,1-4,1.49a46,46,0,0,1-8.9,2,28.27,28.27,0,0,1-10.86-.66,4.81,4.81,0,0,1-.75-.28l-.48-.23a26.69,26.69,0,0,1-6.86-4.74,46.93,46.93,0,0,1-4.48-4.82,83.07,83.07,0,0,1-6.74-9.64c-2-3.23-3.74-6.51-5.39-9.8-.81-1.66-1.62-3.31-2.36-5-.37-.84-.75-1.69-1.1-2.54l-1.08-2.67a10.47,10.47,0,0,1,19.22-8.3Z" style="fill: rgb(0, 255, 136); transform-origin: 167.931px 170.354px;" id="elf5c6ozc6hig" class="animable"></path></g><g id="freepik--Plant--inject-1" class="animable" style="transform-origin: 360.106px 338.064px;"><path d="M362.85,378.84c-1.54-12.09,5.2-21.84,11.72-31.28,7.67-11.1,15.6-22.57,10.91-38.32a33,33,0,0,0-6.31-11.77,40.88,40.88,0,0,1-13.75,18c-8.7,6.48-19,8.52-26.17,5.21-4.05-1.86-9-6.25-9.75-16.53-.74-10.52,5.37-18,16.33-20s24.27,2,33,11.41a43.49,43.49,0,0,0,1.84-20.25l1-.14a44.23,44.23,0,0,1-2.07,21.24A33.94,33.94,0,0,1,386.44,309c4.83,16.2-3.24,27.88-11.05,39.17-6.71,9.71-13,18.88-11.55,30.58Zm-11.33-94.2a31.2,31.2,0,0,0-5.51.48c-10.41,1.89-16.21,9-15.52,18.93.54,7.75,3.71,13.18,9.18,15.69,6.87,3.16,16.75,1.16,25.16-5.1a39.92,39.92,0,0,0,13.6-18A36.79,36.79,0,0,0,351.52,284.64Z" style="fill: rgb(38, 50, 56); transform-origin: 358.669px 327.005px;" id="el3u1fnpaukmg" class="animable"></path><path d="M381.57,278.67c-7.92-7.07-8.83-16.4-4.19-18.37C383.81,257.57,386.21,268.93,381.57,278.67Z" style="fill: rgb(0, 255, 136); transform-origin: 379.277px 269.279px;" id="elkqkwh4ojqfn" class="animable"></path><path d="M375.56,347c-5.66-9-6-20.22.91-21C382.76,325.26,384.14,335.92,375.56,347Z" style="fill: rgb(0, 255, 136); transform-origin: 376.446px 336.482px;" id="elxczh6ysqbap" class="animable"></path><path d="M381.75,281.64c-1.09-6.71,2.21-11.71,5.31-10.82C391.35,272.05,388,278.66,381.75,281.64Z" style="fill: rgb(0, 255, 136); transform-origin: 385.263px 276.179px;" id="el3xqs2jf7tva" class="animable"></path><path d="M366.18,314.07c-3.47-7.48-1.25-14.41,2.67-14.39C374.27,299.72,372.48,308.55,366.18,314.07Z" style="fill: rgb(0, 255, 136); transform-origin: 368.262px 306.875px;" id="elfgh5xt6m40m" class="animable"></path><path d="M352.86,284.24c-7.14,1.21-12.5-2.28-11.57-5.59C342.58,274.06,349.65,277.62,352.86,284.24Z" style="fill: rgb(0, 255, 136); transform-origin: 347.022px 280.532px;" id="el3nzpf542bw6" class="animable"></path><path d="M352.86,284.24c-4.38-2.34-5-5.82-2.76-6.75C353.25,276.2,354.75,280.39,352.86,284.24Z" style="fill: rgb(0, 255, 136); transform-origin: 351.263px 280.746px;" id="el28li3sb0btb" class="animable"></path><path d="M387.28,314c-1.73-4.67.1-7.7,2.41-6.89C392.9,308.24,391.25,312.36,387.28,314Z" style="fill: rgb(0, 255, 136); transform-origin: 388.991px 310.49px;" id="eltfnw3dy1jg" class="animable"></path><path d="M331.11,310.73c-4.95.54-7.44-2-6.09-4C326.9,303.87,330.5,306.48,331.11,310.73Z" style="fill: rgb(0, 255, 136); transform-origin: 327.883px 308.166px;" id="ele5yts1t9565" class="animable"></path><g id="el6ghfqx4jdu8"><rect x="385.12" y="386.95" width="17.52" height="1" style="fill: rgb(0, 255, 136); transform-origin: 393.88px 387.45px; transform: rotate(-82.26deg);" class="animable"></rect></g><g id="elh6bqv5ev06g"><rect x="387.27" y="404.29" width="8.47" height="1" style="fill: rgb(0, 255, 136); transform-origin: 391.505px 404.79px; transform: rotate(-82.26deg);" class="animable"></rect></g><path d="M344,371.23l5.79,42.34a3.09,3.09,0,0,0,3.06,2.67h31.26a3.09,3.09,0,0,0,3.06-2.67l5.79-42.34a3.09,3.09,0,0,0-3.06-3.5H347A3.09,3.09,0,0,0,344,371.23Z" style="fill: rgb(0, 255, 136); transform-origin: 368.48px 391.985px;" id="elaqjbfl9fizb" class="animable"></path></g><defs>     <filter id="active" height="200%">         <feMorphology in="SourceAlpha" result="DILATED" operator="dilate" radius="2"></feMorphology>                <feFlood flood-color="#32DFEC" flood-opacity="1" result="PINK"></feFlood>        <feComposite in="PINK" in2="DILATED" operator="in" result="OUTLINE"></feComposite>        <feMerge>            <feMergeNode in="OUTLINE"></feMergeNode>            <feMergeNode in="SourceGraphic"></feMergeNode>        </feMerge>    </filter>    <filter id="hover" height="200%">        <feMorphology in="SourceAlpha" result="DILATED" operator="dilate" radius="2"></feMorphology>                <feFlood flood-color="#ff0000" flood-opacity="0.5" result="PINK"></feFlood>        <feComposite in="PINK" in2="DILATED" operator="in" result="OUTLINE"></feComposite>        <feMerge>            <feMergeNode in="OUTLINE"></feMergeNode>            <feMergeNode in="SourceGraphic"></feMergeNode>        </feMerge>            <feColorMatrix type="matrix" values="0   0   0   0   0                0   1   0   0   0                0   0   0   0   0                0   0   0   1   0 "></feColorMatrix>    </filter></defs></svg>